<svg xmlns="http://www.w3.org/2000/svg" xmlns:xlink="http://www.w3.org/1999/xlink" width="60" zoomAndPan="magnify" viewBox="0 0 45 44.999999" height="60" preserveAspectRatio="xMidYMid meet" version="1.0"><defs><clipPath id="9c2e64beb9"><path d="M 17 9.488281 L 29 9.488281 L 29 21 L 17 21 Z M 17 9.488281 " clip-rule="nonzero"/></clipPath><clipPath id="9abf255986"><path d="M 9.488281 18 L 35.738281 18 L 35.738281 35.738281 L 9.488281 35.738281 Z M 9.488281 18 " clip-rule="nonzero"/></clipPath></defs><g clip-path="url(#9c2e64beb9)"><path fill="#ffffff" d="M 18.09375 20.492188 C 18.695312 20.492188 19.1875 20.003906 19.1875 19.398438 L 19.1875 15.132812 C 19.1875 13.226562 20.738281 11.675781 22.644531 11.675781 C 24.550781 11.675781 26.101562 13.226562 26.101562 15.132812 L 26.101562 19.398438 C 26.101562 20.003906 26.59375 20.492188 27.195312 20.492188 C 27.800781 20.492188 28.289062 20.003906 28.289062 19.398438 L 28.289062 15.132812 C 28.292969 12.019531 25.757812 9.488281 22.644531 9.488281 C 19.53125 9.488281 17 12.019531 17 15.132812 L 17 19.398438 C 17 20.003906 17.488281 20.492188 18.09375 20.492188 Z M 18.09375 20.492188 " fill-opacity="1" fill-rule="nonzero"/></g><g clip-path="url(#9abf255986)"><path fill="#ffffff" d="M 35.191406 18.035156 L 29.386719 18.035156 L 29.386719 19.398438 C 29.386719 20.605469 28.402344 21.585938 27.199219 21.585938 C 25.992188 21.585938 25.011719 20.605469 25.011719 19.398438 L 25.011719 18.035156 L 20.28125 18.035156 L 20.28125 19.398438 C 20.28125 20.605469 19.300781 21.585938 18.09375 21.585938 C 16.886719 21.585938 15.90625 20.605469 15.90625 19.398438 L 15.90625 18.035156 L 10.035156 18.035156 C 9.734375 18.035156 9.546875 18.273438 9.617188 18.566406 L 13.445312 34.152344 C 13.675781 35.027344 14.597656 35.738281 15.503906 35.738281 L 29.722656 35.738281 C 30.628906 35.738281 31.550781 35.027344 31.78125 34.152344 L 35.605469 18.566406 C 35.679688 18.273438 35.492188 18.035156 35.191406 18.035156 Z M 35.191406 18.035156 " fill-opacity="1" fill-rule="nonzero"/></g></svg>