<svg xmlns="http://www.w3.org/2000/svg" xmlns:xlink="http://www.w3.org/1999/xlink" width="40" zoomAndPan="magnify" viewBox="0 0 30 30.000001" height="40" preserveAspectRatio="xMidYMid meet" version="1.0"><defs><clipPath id="344fbe74a6"><path d="M 5.988281 7.429688 L 24.132812 7.429688 L 24.132812 21.949219 L 5.988281 21.949219 Z M 5.988281 7.429688 " clip-rule="nonzero"/></clipPath></defs><g clip-path="url(#344fbe74a6)"><path fill="#ffffff" d="M 21.582031 8.753906 L 8.542969 8.753906 L 14.667969 13.546875 C 14.898438 13.730469 15.222656 13.730469 15.457031 13.546875 Z M 7.285156 9.433594 L 7.285156 20.625 L 22.839844 20.625 L 22.839844 9.433594 L 16.246094 14.59375 C 15.546875 15.140625 14.574219 15.140625 13.875 14.59375 Z M 5.988281 8.753906 C 5.988281 8.023438 6.570312 7.433594 7.285156 7.433594 L 22.839844 7.433594 C 23.554688 7.433594 24.132812 8.023438 24.132812 8.753906 L 24.132812 20.625 C 24.132812 21.355469 23.554688 21.945312 22.839844 21.945312 L 7.285156 21.945312 C 6.570312 21.945312 5.988281 21.355469 5.988281 20.625 Z M 5.988281 8.753906 " fill-opacity="1" fill-rule="evenodd"/></g></svg>