<svg xmlns="http://www.w3.org/2000/svg" xmlns:xlink="http://www.w3.org/1999/xlink" width="60" zoomAndPan="magnify" viewBox="0 0 45 44.999999" height="60" preserveAspectRatio="xMidYMid meet" version="1.0"><defs><clipPath id="a4cbadb54e"><path d="M 9.335938 9.335938 L 35.585938 9.335938 L 35.585938 35.585938 L 9.335938 35.585938 Z M 9.335938 9.335938 " clip-rule="nonzero"/></clipPath></defs><g clip-path="url(#a4cbadb54e)"><path fill="#ffffff" d="M 22.460938 11.960938 C 28.261719 11.960938 32.960938 16.664062 32.960938 22.460938 C 32.960938 24.128906 32.574219 25.699219 31.890625 27.09375 C 31.699219 27.476562 31.632812 27.925781 31.722656 28.371094 L 32.597656 32.625 L 28.167969 31.796875 C 27.746094 31.71875 27.320312 31.78125 26.953125 31.957031 C 25.59375 32.601562 24.070312 32.960938 22.460938 32.960938 C 16.664062 32.960938 11.960938 28.261719 11.960938 22.460938 C 11.960938 16.664062 16.664062 11.960938 22.460938 11.960938 Z M 35.585938 22.460938 C 35.585938 15.214844 29.710938 9.335938 22.460938 9.335938 C 15.214844 9.335938 9.335938 15.214844 9.335938 22.460938 C 9.335938 29.710938 15.214844 35.585938 22.460938 35.585938 C 24.394531 35.585938 26.234375 35.167969 27.890625 34.414062 L 33.074219 35.386719 C 34.449219 35.644531 35.644531 34.425781 35.363281 33.054688 L 34.339844 28.054688 C 35.140625 26.359375 35.585938 24.460938 35.585938 22.460938 Z M 35.585938 22.460938 " fill-opacity="1" fill-rule="evenodd"/></g><path fill="#ffffff" d="M 16.566406 24.726562 C 14.773438 22.933594 14.773438 20.023438 16.566406 18.230469 C 18.074219 16.71875 20.375 16.480469 22.132812 17.511719 C 23.894531 16.480469 26.191406 16.71875 27.703125 18.230469 C 29.496094 20.023438 29.496094 22.933594 27.703125 24.726562 L 23.0625 29.367188 C 22.550781 29.878906 21.71875 29.878906 21.207031 29.367188 Z M 18.421875 20.085938 C 17.652344 20.855469 17.652344 22.101562 18.421875 22.871094 L 22.132812 26.582031 L 25.847656 22.871094 C 26.617188 22.101562 26.617188 20.855469 25.847656 20.085938 C 25.078125 19.316406 23.832031 19.316406 23.0625 20.085938 C 22.550781 20.597656 21.71875 20.597656 21.207031 20.085938 C 20.4375 19.316406 19.191406 19.316406 18.421875 20.085938 Z M 18.421875 20.085938 " fill-opacity="1" fill-rule="evenodd"/></svg>