<svg xmlns="http://www.w3.org/2000/svg" xmlns:xlink="http://www.w3.org/1999/xlink" width="40" zoomAndPan="magnify" viewBox="0 0 30 30.000001" height="40" preserveAspectRatio="xMidYMid meet" version="1.0"><defs><clipPath id="3c5bbe7e6d"><path d="M 5.925781 5.445312 L 24.074219 5.445312 L 24.074219 23.589844 L 5.925781 23.589844 Z M 5.925781 5.445312 " clip-rule="nonzero"/></clipPath></defs><g clip-path="url(#3c5bbe7e6d)"><path fill="#ffffff" d="M 15 5.445312 C 9.988281 5.445312 5.925781 9.503906 5.925781 14.515625 C 5.925781 19.527344 9.988281 23.589844 15 23.589844 C 20.011719 23.589844 24.074219 19.527344 24.074219 14.515625 C 24.074219 9.503906 20.011719 5.445312 15 5.445312 Z M 16.734375 19.863281 C 16.457031 19.917969 16.355469 19.746094 16.355469 19.597656 C 16.355469 19.417969 16.363281 18.828125 16.363281 18.09375 C 16.363281 17.578125 16.1875 17.246094 15.992188 17.074219 C 17.210938 16.9375 18.492188 16.476562 18.492188 14.363281 C 18.492188 13.765625 18.28125 13.273438 17.929688 12.890625 C 17.984375 12.75 18.171875 12.191406 17.875 11.4375 C 17.875 11.4375 17.417969 11.289062 16.371094 12 C 15.933594 11.878906 15.464844 11.816406 15 11.816406 C 14.535156 11.816406 14.066406 11.878906 13.632812 12 C 12.585938 11.289062 12.125 11.4375 12.125 11.4375 C 11.828125 12.195312 12.015625 12.75 12.074219 12.890625 C 11.722656 13.273438 11.511719 13.765625 11.511719 14.363281 C 11.511719 16.46875 12.789062 16.941406 14.003906 17.078125 C 13.847656 17.214844 13.703125 17.457031 13.65625 17.8125 C 13.34375 17.953125 12.550781 18.195312 12.0625 17.355469 C 12.0625 17.355469 11.773438 16.828125 11.226562 16.789062 C 11.226562 16.789062 10.691406 16.785156 11.1875 17.125 C 11.1875 17.125 11.546875 17.292969 11.792969 17.929688 C 11.792969 17.929688 12.117188 18.996094 13.636719 18.664062 C 13.640625 19.125 13.644531 19.46875 13.644531 19.597656 C 13.644531 19.746094 13.546875 19.914062 13.273438 19.863281 C 11.097656 19.136719 9.527344 17.078125 9.527344 14.652344 C 9.527344 11.617188 11.980469 9.160156 15 9.160156 C 18.023438 9.160156 20.472656 11.617188 20.472656 14.652344 C 20.472656 17.078125 18.90625 19.136719 16.734375 19.863281 Z M 16.734375 19.863281 " fill-opacity="1" fill-rule="nonzero"/></g></svg>