<svg xmlns="http://www.w3.org/2000/svg" xmlns:xlink="http://www.w3.org/1999/xlink" width="40" zoomAndPan="magnify" viewBox="0 0 30 30.000001" height="40" preserveAspectRatio="xMidYMid meet" version="1.0"><defs><clipPath id="fa7a64aa72"><path d="M 5.964844 5.480469 L 24.109375 5.480469 L 24.109375 23.625 L 5.964844 23.625 Z M 5.964844 5.480469 " clip-rule="nonzero"/></clipPath></defs><g clip-path="url(#fa7a64aa72)"><path fill="#ffffff" d="M 15.035156 5.480469 C 10.027344 5.480469 5.964844 9.542969 5.964844 14.550781 C 5.964844 19.5625 10.027344 23.625 15.035156 23.625 C 20.046875 23.625 24.109375 19.5625 24.109375 14.550781 C 24.109375 9.542969 20.046875 5.480469 15.035156 5.480469 Z M 12.296875 19 L 10.390625 19 L 10.390625 12.957031 L 12.296875 12.957031 Z M 11.296875 12.203125 L 11.28125 12.203125 C 10.589844 12.203125 10.144531 11.738281 10.144531 11.152344 C 10.144531 10.566406 10.605469 10.105469 11.308594 10.105469 C 12.011719 10.105469 12.445312 10.554688 12.460938 11.152344 C 12.460938 11.738281 12.011719 12.203125 11.296875 12.203125 Z M 19.929688 19 L 17.765625 19 L 17.765625 15.871094 C 17.765625 15.054688 17.425781 14.496094 16.683594 14.496094 C 16.113281 14.496094 15.796875 14.871094 15.652344 15.234375 C 15.59375 15.367188 15.605469 15.546875 15.605469 15.730469 L 15.605469 19 L 13.460938 19 C 13.460938 19 13.488281 13.460938 13.460938 12.957031 L 15.605469 12.957031 L 15.605469 13.90625 C 15.730469 13.488281 16.414062 12.898438 17.507812 12.898438 C 18.863281 12.898438 19.929688 13.769531 19.929688 15.640625 Z M 19.929688 19 " fill-opacity="1" fill-rule="nonzero"/></g></svg>