<svg xmlns="http://www.w3.org/2000/svg" xmlns:xlink="http://www.w3.org/1999/xlink" width="60" zoomAndPan="magnify" viewBox="0 0 45 44.999999" height="60" preserveAspectRatio="xMidYMid meet" version="1.0"><defs><g/><clipPath id="de66823866"><path d="M 9.503906 9.503906 L 35.753906 9.503906 L 35.753906 35.753906 L 9.503906 35.753906 Z M 9.503906 9.503906 " clip-rule="nonzero"/></clipPath><clipPath id="60dd5ee6cf"><path d="M 32.242188 19.441406 L 32.917969 19.441406 L 32.917969 20.117188 L 32.242188 20.117188 Z M 32.242188 19.441406 " clip-rule="nonzero"/></clipPath><clipPath id="0964c92608"><path d="M 32.582031 19.441406 C 32.394531 19.441406 32.242188 19.589844 32.242188 19.777344 C 32.242188 19.964844 32.394531 20.117188 32.582031 20.117188 C 32.765625 20.117188 32.917969 19.964844 32.917969 19.777344 C 32.917969 19.589844 32.765625 19.441406 32.582031 19.441406 " clip-rule="nonzero"/></clipPath><clipPath id="71ea0ca757"><path d="M 21.144531 11.746094 L 21.820312 11.746094 L 21.820312 12.421875 L 21.144531 12.421875 Z M 21.144531 11.746094 " clip-rule="nonzero"/></clipPath><clipPath id="717bd6b618"><path d="M 21.480469 11.746094 C 21.296875 11.746094 21.144531 11.898438 21.144531 12.085938 C 21.144531 12.273438 21.296875 12.421875 21.480469 12.421875 C 21.667969 12.421875 21.820312 12.273438 21.820312 12.085938 C 21.820312 11.898438 21.667969 11.746094 21.480469 11.746094 " clip-rule="nonzero"/></clipPath></defs><g clip-path="url(#de66823866)"><path fill="#aedd64" d="M 22.628906 10.363281 C 15.863281 10.363281 10.363281 15.863281 10.363281 22.628906 C 10.363281 29.394531 15.863281 34.894531 22.628906 34.894531 C 29.394531 34.894531 34.894531 29.394531 34.894531 22.628906 C 34.894531 15.863281 29.394531 10.363281 22.628906 10.363281 Z M 22.628906 35.753906 C 15.390625 35.753906 9.503906 29.867188 9.503906 22.628906 C 9.503906 15.390625 15.390625 9.503906 22.628906 9.503906 C 29.867188 9.503906 35.753906 15.390625 35.753906 22.628906 C 35.753906 29.867188 29.867188 35.753906 22.628906 35.753906 " fill-opacity="1" fill-rule="nonzero"/></g><path fill="#92c638" d="M 18.265625 15.136719 C 14.320312 17.402344 14.742188 21.738281 14.742188 21.738281 C 14.75 21.679688 14.757812 21.621094 14.773438 21.5625 C 14.875 21.097656 15.25 20.746094 15.707031 20.605469 C 21.878906 18.6875 19.203125 12.355469 19.203125 12.355469 C 18.589844 14.464844 15.914062 13.621094 14.4375 15.605469 C 13.082031 17.429688 14.460938 20.132812 14.460938 20.132812 C 14.753906 16.664062 18.265625 15.136719 18.265625 15.136719 " fill-opacity="1" fill-rule="nonzero"/><path fill="#aedd64" d="M 14.707031 23.132812 C 14.730469 23.109375 14.753906 23.089844 14.78125 23.074219 C 14.984375 22.933594 15.25 22.929688 15.472656 23.035156 C 18.496094 24.464844 19.695312 21.109375 19.695312 21.109375 C 18.722656 21.699219 17.996094 20.441406 16.738281 20.683594 C 15.582031 20.90625 15.164062 22.417969 15.164062 22.417969 C 16.488281 21.199219 18.363281 21.84375 18.363281 21.84375 C 16.0625 21.328125 14.707031 23.132812 14.707031 23.132812 " fill-opacity="1" fill-rule="nonzero"/><path fill="#92c638" d="M 31.242188 22.332031 C 31.164062 20.675781 30.570312 19.0625 29.589844 17.753906 C 28.605469 16.449219 27.242188 15.449219 25.726562 14.941406 C 27.167969 15.625 28.402344 16.691406 29.246094 17.996094 C 30.097656 19.296875 30.554688 20.828125 30.574219 22.355469 L 30.578125 22.640625 L 30.554688 22.929688 C 30.539062 23.117188 30.535156 23.308594 30.507812 23.5 C 30.441406 23.875 30.398438 24.253906 30.28125 24.617188 C 30.199219 24.988281 30.039062 25.335938 29.910156 25.691406 C 29.738281 26.027344 29.589844 26.378906 29.375 26.691406 C 29.1875 27.023438 28.945312 27.316406 28.71875 27.621094 C 28.460938 27.898438 28.222656 28.191406 27.929688 28.433594 C 27.660156 28.699219 27.34375 28.910156 27.042969 29.136719 C 26.71875 29.332031 26.40625 29.546875 26.058594 29.695312 C 25.722656 29.875 25.363281 29.992188 25.011719 30.125 C 24.832031 30.179688 24.644531 30.222656 24.464844 30.273438 C 24.371094 30.296875 24.28125 30.324219 24.191406 30.34375 L 23.910156 30.386719 C 23.164062 30.53125 22.398438 30.515625 21.648438 30.445312 L 21.085938 30.367188 C 20.898438 30.332031 20.714844 30.28125 20.53125 30.238281 C 20.4375 30.214844 20.347656 30.195312 20.253906 30.167969 L 19.988281 30.074219 C 19.808594 30.007812 19.625 29.957031 19.453125 29.875 C 18.75 29.582031 18.101562 29.171875 17.496094 28.703125 C 16.898438 28.226562 16.390625 27.644531 15.9375 27.023438 C 15.488281 26.394531 15.15625 25.691406 14.894531 24.960938 C 14.644531 24.222656 14.511719 23.449219 14.460938 22.664062 C 14.421875 21.878906 14.492188 21.082031 14.671875 20.308594 C 14.40625 21.058594 14.25 21.855469 14.222656 22.664062 C 14.207031 23.472656 14.289062 24.289062 14.492188 25.082031 C 14.71875 25.863281 15.03125 26.628906 15.46875 27.332031 C 15.914062 28.023438 16.445312 28.664062 17.066406 29.210938 C 17.695312 29.75 18.390625 30.222656 19.152344 30.5625 C 19.335938 30.65625 19.539062 30.714844 19.730469 30.792969 L 20.023438 30.90625 C 20.121094 30.9375 20.222656 30.960938 20.324219 30.988281 C 20.527344 31.042969 20.726562 31.101562 20.929688 31.148438 L 21.546875 31.25 C 22.375 31.351562 23.21875 31.359375 24.042969 31.210938 L 24.355469 31.164062 C 24.457031 31.144531 24.558594 31.117188 24.660156 31.089844 C 24.863281 31.039062 25.066406 30.992188 25.265625 30.933594 C 25.660156 30.789062 26.0625 30.660156 26.433594 30.464844 C 26.816406 30.296875 27.164062 30.058594 27.519531 29.839844 C 27.851562 29.585938 28.199219 29.347656 28.496094 29.050781 C 28.816406 28.78125 29.078125 28.453125 29.359375 28.144531 C 29.609375 27.808594 29.871094 27.480469 30.070312 27.113281 C 30.296875 26.761719 30.453125 26.371094 30.632812 25.996094 C 30.765625 25.601562 30.925781 25.214844 31.007812 24.804688 C 31.125 24.402344 31.167969 23.988281 31.222656 23.574219 C 31.242188 23.371094 31.238281 23.160156 31.25 22.953125 L 31.257812 22.644531 L 31.242188 22.332031 " fill-opacity="1" fill-rule="nonzero"/><g fill="#ffffff" fill-opacity="1"><g transform="translate(12.317308, 23.156882)"><g><path d="M 1.757812 0.492188 L 1.6875 -0.175781 C 1.605469 -0.132812 1.507812 -0.117188 1.394531 -0.101562 C 1.210938 -0.0859375 0.488281 -0.0078125 0.304688 0.0078125 C 0.1875 0.0195312 0.0898438 0.0234375 0 0 C 0.0117188 0.0976562 0.0234375 0.242188 0.0351562 0.339844 C 0.117188 0.300781 0.214844 0.28125 0.332031 0.269531 L 0.378906 0.261719 C 0.917969 0.207031 0.917969 1.132812 1.457031 1.078125 C 1.652344 1.058594 1.796875 0.867188 1.757812 0.492188 Z M 0.648438 0.234375 L 1.640625 0.132812 L 1.65625 0.269531 C 1.683594 0.539062 1.648438 0.789062 1.441406 0.816406 C 1.097656 0.867188 0.988281 0.390625 0.648438 0.234375 Z M 0.648438 0.234375 "/></g></g></g><g fill="#ffffff" fill-opacity="1"><g transform="translate(12.616805, 25.297238)"><g><path d="M 1.820312 0.113281 L 1.617188 -0.523438 C 1.542969 -0.464844 1.453125 -0.425781 1.34375 -0.390625 C 1.164062 -0.335938 0.476562 -0.109375 0.300781 -0.0546875 C 0.1875 -0.0195312 0.0898438 0.00390625 0 0 C 0.03125 0.09375 0.0742188 0.230469 0.105469 0.324219 C 0.175781 0.269531 0.269531 0.230469 0.378906 0.195312 L 0.425781 0.179688 C 0.597656 0.125 0.730469 0.1875 0.855469 0.289062 L 0.445312 0.714844 C 0.390625 0.769531 0.339844 0.8125 0.273438 0.851562 L 0.386719 1.195312 C 0.4375 1.117188 0.535156 1 0.613281 0.917969 L 1.042969 0.472656 C 1.21875 0.65625 1.394531 0.832031 1.648438 0.75 C 1.835938 0.691406 1.9375 0.476562 1.820312 0.113281 Z M 0.683594 0.09375 L 1.632812 -0.210938 L 1.675781 -0.0820312 C 1.757812 0.175781 1.777344 0.425781 1.578125 0.5 C 1.253906 0.617188 1.046875 0.175781 0.683594 0.09375 Z M 0.683594 0.09375 "/></g></g></g><g fill="#ffffff" fill-opacity="1"><g transform="translate(13.354792, 27.382801)"><g><path d="M 1.933594 -0.152344 C 1.679688 -0.570312 1.140625 -0.699219 0.722656 -0.445312 C 0.308594 -0.1875 0.179688 0.351562 0.433594 0.765625 C 0.6875 1.183594 1.230469 1.3125 1.644531 1.058594 C 2.058594 0.804688 2.191406 0.261719 1.933594 -0.152344 Z M 0.792969 0.992188 C 0.5 0.824219 0.441406 0.382812 0.65625 0.00390625 C 0.871094 -0.375 1.285156 -0.546875 1.578125 -0.378906 C 1.867188 -0.210938 1.929688 0.230469 1.714844 0.609375 C 1.496094 0.984375 1.085938 1.160156 0.792969 0.992188 Z M 0.792969 0.992188 "/></g></g></g><g fill="#ffffff" fill-opacity="1"><g transform="translate(14.879098, 29.623652)"><g><path d="M 0.957031 0.0703125 C 0.789062 0.234375 0.554688 0.371094 0.351562 0.195312 C 0.21875 0.0820312 0.226562 -0.09375 0.300781 -0.265625 L 0.285156 -0.277344 C 0.128906 -0.0429688 0.171875 0.175781 0.308594 0.3125 C 0.503906 0.511719 0.84375 0.550781 1.109375 0.289062 L 1.6875 -0.277344 C 1.769531 -0.355469 1.84375 -0.421875 1.929688 -0.457031 L 1.691406 -0.703125 C 1.652344 -0.621094 1.585938 -0.542969 1.5 -0.464844 Z M 0.957031 0.0703125 "/></g></g></g><g fill="#ffffff" fill-opacity="1"><g transform="translate(16.291551, 30.972497)"><g><path d="M 0.972656 0.664062 L 1.132812 0.460938 L 1.117188 0.449219 C 1.074219 0.476562 0.941406 0.535156 0.773438 0.421875 L 0.296875 0.0976562 L 0.664062 -0.4375 L 0.867188 -0.296875 C 1.035156 -0.179688 1.03125 -0.0351562 1.019531 0.0117188 L 1.035156 0.0234375 C 1.117188 -0.09375 1.195312 -0.210938 1.277344 -0.328125 L 1.261719 -0.339844 C 1.21875 -0.3125 1.085938 -0.253906 0.917969 -0.367188 L 0.710938 -0.507812 L 1.15625 -1.160156 L 1.578125 -0.871094 C 1.746094 -0.757812 1.738281 -0.613281 1.730469 -0.5625 L 1.746094 -0.550781 L 1.878906 -0.773438 L 0.957031 -1.402344 C 0.933594 -1.3125 0.886719 -1.226562 0.820312 -1.132812 C 0.714844 -0.976562 0.308594 -0.378906 0.203125 -0.226562 C 0.136719 -0.128906 0.0742188 -0.0546875 0 0 Z M 0.972656 0.664062 "/></g></g></g><g fill="#ffffff" fill-opacity="1"><g transform="translate(18.09829, 32.119665)"><g><path d="M 0.871094 0.0273438 C 1.035156 -0.375 1.199219 -0.78125 1.363281 -1.1875 L 1.578125 -1.097656 C 1.769531 -1.019531 1.792969 -0.878906 1.792969 -0.828125 L 1.8125 -0.820312 L 1.894531 -1.066406 L 0.652344 -1.570312 L 0.539062 -1.335938 L 0.558594 -1.328125 C 0.59375 -1.363281 0.710938 -1.449219 0.898438 -1.375 L 1.117188 -1.285156 C 0.953125 -0.878906 0.789062 -0.472656 0.628906 -0.0703125 C 0.582031 0.0351562 0.539062 0.125 0.476562 0.191406 L 0.792969 0.320312 C 0.796875 0.230469 0.828125 0.132812 0.871094 0.0273438 Z M 0.871094 0.0273438 "/></g></g></g><g fill="#ffffff" fill-opacity="1"><g transform="translate(20.28813, 32.929437)"><g><path d="M 1.117188 -1.589844 C 0.632812 -1.65625 0.1875 -1.324219 0.121094 -0.839844 C 0.0507812 -0.359375 0.386719 0.0859375 0.867188 0.15625 C 1.351562 0.222656 1.796875 -0.109375 1.863281 -0.59375 C 1.933594 -1.074219 1.597656 -1.519531 1.117188 -1.589844 Z M 1.269531 0.0195312 C 0.953125 0.140625 0.574219 -0.09375 0.421875 -0.503906 C 0.265625 -0.910156 0.398438 -1.335938 0.710938 -1.457031 C 1.027344 -1.574219 1.40625 -1.339844 1.5625 -0.933594 C 1.714844 -0.523438 1.585938 -0.0976562 1.269531 0.0195312 Z M 1.269531 0.0195312 "/></g></g></g><g fill="#ffffff" fill-opacity="1"><g transform="translate(22.97446, 33.173958)"><g/></g></g><g fill="#ffffff" fill-opacity="1"><g transform="translate(24.488961, 33.046894)"><g><path d="M 0.71875 -0.492188 C 0.613281 -0.914062 0.507812 -1.335938 0.398438 -1.761719 L 0.628906 -1.816406 C 0.824219 -1.867188 0.929688 -1.769531 0.960938 -1.726562 L 0.980469 -1.730469 L 0.902344 -1.976562 L -0.398438 -1.652344 L -0.351562 -1.398438 L -0.332031 -1.402344 C -0.324219 -1.453125 -0.28125 -1.589844 -0.0859375 -1.640625 L 0.144531 -1.695312 C 0.25 -1.273438 0.359375 -0.847656 0.464844 -0.425781 C 0.492188 -0.316406 0.511719 -0.21875 0.5 -0.125 L 0.832031 -0.207031 C 0.777344 -0.285156 0.746094 -0.378906 0.71875 -0.492188 Z M 0.71875 -0.492188 "/></g></g></g><g fill="#ffffff" fill-opacity="1"><g transform="translate(26.712793, 32.39663)"><g><path d="M -0.160156 -1.820312 L -0.757812 -1.519531 C -0.691406 -1.457031 -0.640625 -1.371094 -0.589844 -1.269531 C -0.503906 -1.101562 -0.179688 -0.453125 -0.0976562 -0.289062 C -0.046875 -0.183594 -0.0117188 -0.0898438 0 0 C 0.0898438 -0.0429688 0.214844 -0.109375 0.304688 -0.152344 C 0.238281 -0.214844 0.1875 -0.300781 0.132812 -0.402344 L 0.113281 -0.445312 C 0.03125 -0.609375 0.0742188 -0.75 0.15625 -0.890625 L 0.640625 -0.546875 C 0.703125 -0.503906 0.753906 -0.457031 0.800781 -0.398438 L 1.121094 -0.5625 C 1.039062 -0.601562 0.910156 -0.679688 0.816406 -0.746094 L 0.308594 -1.101562 C 0.464844 -1.304688 0.613281 -1.503906 0.496094 -1.742188 C 0.40625 -1.921875 0.179688 -1.988281 -0.160156 -1.820312 Z M -0.0078125 -0.691406 L -0.453125 -1.582031 L -0.332031 -1.644531 C -0.0898438 -1.765625 0.15625 -1.820312 0.253906 -1.636719 C 0.421875 -1.332031 0.0195312 -1.0625 -0.0078125 -0.691406 Z M -0.0078125 -0.691406 "/></g></g></g><g fill="#ffffff" fill-opacity="1"><g transform="translate(28.653102, 31.349377)"><g><path d="M -0.367188 -1.898438 L -0.585938 -1.71875 L -0.0820312 -0.320312 C -0.046875 -0.21875 -0.015625 -0.0976562 0 0 L 0.230469 -0.1875 C 0.09375 -0.238281 0.0195312 -0.296875 -0.0117188 -0.378906 C -0.0507812 -0.492188 -0.078125 -0.585938 -0.0351562 -0.699219 C 0.0273438 -0.871094 0.214844 -1.023438 0.398438 -1.050781 C 0.507812 -1.066406 0.597656 -1.027344 0.703125 -0.964844 C 0.792969 -0.910156 0.898438 -0.84375 0.949219 -0.785156 L 1.210938 -1.003906 C 1.121094 -1.035156 1.003906 -1.089844 0.914062 -1.140625 Z M 0.402344 -1.140625 C 0.167969 -1.113281 -0.0546875 -0.925781 -0.125 -0.703125 L -0.464844 -1.648438 Z M 0.402344 -1.140625 "/></g></g></g><g fill="#ffffff" fill-opacity="1"><g transform="translate(30.494487, 29.668479)"><g><path d="M -1.042969 -0.929688 L -0.203125 -0.226562 C -0.117188 -0.152344 -0.046875 -0.078125 0 0 L 0.21875 -0.261719 C 0.132812 -0.292969 0.0507812 -0.351562 -0.0390625 -0.425781 C -0.179688 -0.542969 -0.734375 -1.007812 -0.875 -1.128906 C -0.964844 -1.203125 -1.035156 -1.273438 -1.082031 -1.355469 L -1.300781 -1.089844 C -1.214844 -1.0625 -1.132812 -1.003906 -1.042969 -0.929688 Z M -1.042969 -0.929688 "/></g></g></g><g fill="#ffffff" fill-opacity="1"><g transform="translate(31.298036, 28.684481)"><g><path d="M -0.910156 -1.820312 C -0.769531 -1.902344 -0.597656 -1.835938 -0.472656 -1.765625 L 0.300781 -1.316406 L -1.308594 -1.132812 C -1.359375 -1.039062 -1.414062 -0.945312 -1.46875 -0.851562 L -1.402344 -0.859375 L -0.242188 -0.1875 C -0.140625 -0.128906 -0.0585938 -0.0703125 0 0 L 0.148438 -0.257812 C 0.0117188 -0.179688 -0.160156 -0.242188 -0.285156 -0.316406 L -1.253906 -0.875 L 0.632812 -1.09375 L 0.691406 -1.195312 L -0.519531 -1.894531 C -0.617188 -1.949219 -0.699219 -2.007812 -0.757812 -2.078125 Z M -0.910156 -1.820312 "/></g></g></g><g fill="#ffffff" fill-opacity="1"><g transform="translate(32.399454, 26.592926)"><g><path d="M 0.355469 -1.125 L 0.117188 -1.21875 L 0.109375 -1.199219 C 0.148438 -1.167969 0.242188 -1.054688 0.179688 -0.863281 L 0.0078125 -0.3125 L -0.609375 -0.507812 L -0.53125 -0.746094 C -0.472656 -0.941406 -0.332031 -0.976562 -0.28125 -0.980469 L -0.273438 -1 C -0.410156 -1.042969 -0.546875 -1.085938 -0.683594 -1.128906 L -0.6875 -1.109375 C -0.648438 -1.078125 -0.554688 -0.96875 -0.617188 -0.773438 L -0.691406 -0.535156 L -1.441406 -0.773438 L -1.289062 -1.261719 C -1.226562 -1.457031 -1.085938 -1.492188 -1.035156 -1.496094 L -1.03125 -1.511719 L -1.28125 -1.574219 L -1.617188 -0.515625 C -1.527344 -0.519531 -1.429688 -0.496094 -1.320312 -0.460938 C -1.140625 -0.40625 -0.453125 -0.1875 -0.273438 -0.128906 C -0.164062 -0.09375 -0.0742188 -0.0546875 0 0 Z M 0.355469 -1.125 "/></g></g></g><g fill="#ffffff" fill-opacity="1"><g transform="translate(32.971839, 24.536968)"><g><path d="M 0.121094 -1.171875 L -0.136719 -1.214844 L -0.136719 -1.195312 C -0.0898438 -1.171875 0.0234375 -1.082031 0 -0.878906 L -0.0585938 -0.308594 L -0.699219 -0.375 L -0.675781 -0.621094 C -0.652344 -0.824219 -0.523438 -0.890625 -0.472656 -0.902344 L -0.472656 -0.921875 C -0.613281 -0.9375 -0.757812 -0.953125 -0.898438 -0.964844 L -0.898438 -0.945312 C -0.855469 -0.921875 -0.742188 -0.832031 -0.761719 -0.632812 L -0.785156 -0.382812 L -1.570312 -0.464844 L -1.519531 -0.972656 C -1.5 -1.175781 -1.367188 -1.238281 -1.320312 -1.253906 L -1.316406 -1.269531 L -1.574219 -1.28125 L -1.691406 -0.171875 C -1.601562 -0.195312 -1.5 -0.195312 -1.386719 -0.183594 C -1.199219 -0.164062 -0.480469 -0.0898438 -0.296875 -0.0703125 C -0.179688 -0.0585938 -0.0820312 -0.0390625 0 0 Z M 0.121094 -1.171875 "/></g></g></g><g clip-path="url(#60dd5ee6cf)"><g clip-path="url(#0964c92608)"><path fill="#ffffff" d="M 32.242188 19.441406 L 32.917969 19.441406 L 32.917969 20.117188 L 32.242188 20.117188 Z M 32.242188 19.441406 " fill-opacity="1" fill-rule="nonzero"/></g></g><g clip-path="url(#71ea0ca757)"><g clip-path="url(#717bd6b618)"><path fill="#ffffff" d="M 21.144531 11.746094 L 21.820312 11.746094 L 21.820312 12.421875 L 21.144531 12.421875 Z M 21.144531 11.746094 " fill-opacity="1" fill-rule="nonzero"/></g></g><g fill="#ffffff" fill-opacity="1"><g transform="translate(22.771611, 12.645681)"><g><path d="M 0.78125 0.0351562 L 0.796875 -0.136719 L 0.785156 -0.136719 C 0.773438 -0.105469 0.71875 -0.0273438 0.582031 -0.03125 L 0.203125 -0.0507812 L 0.222656 -0.476562 L 0.386719 -0.46875 C 0.519531 -0.464844 0.566406 -0.378906 0.578125 -0.347656 L 0.59375 -0.347656 C 0.597656 -0.441406 0.601562 -0.535156 0.605469 -0.628906 L 0.589844 -0.632812 C 0.578125 -0.601562 0.523438 -0.523438 0.386719 -0.527344 L 0.222656 -0.535156 L 0.246094 -1.054688 L 0.585938 -1.042969 C 0.71875 -1.035156 0.765625 -0.953125 0.777344 -0.921875 L 0.789062 -0.917969 L 0.789062 -1.089844 L 0.0507812 -1.125 C 0.0703125 -1.066406 0.0703125 -1 0.0664062 -0.921875 C 0.0625 -0.800781 0.0429688 -0.320312 0.0351562 -0.199219 C 0.03125 -0.121094 0.0234375 -0.0546875 0 0 Z M 0.78125 0.0351562 "/></g></g></g><g fill="#ffffff" fill-opacity="1"><g transform="translate(24.329313, 12.764876)"><g><path d="M 0.949219 -0.628906 L 0.960938 -0.628906 L 1.007812 -0.839844 C 0.988281 -0.835938 0.976562 -0.851562 0.960938 -0.863281 C 0.890625 -0.945312 0.785156 -1 0.664062 -1.027344 C 0.5625 -1.050781 0.445312 -1.050781 0.359375 -1.003906 C 0.195312 -0.917969 0.179688 -0.703125 0.316406 -0.585938 C 0.402344 -0.507812 0.515625 -0.460938 0.613281 -0.394531 C 0.703125 -0.335938 0.789062 -0.25 0.761719 -0.132812 C 0.734375 0 0.609375 0.0898438 0.445312 0.0546875 C 0.359375 0.0351562 0.285156 0 0.226562 -0.0664062 C 0.105469 -0.195312 0.109375 -0.308594 0.148438 -0.472656 L 0.132812 -0.472656 L 0.0273438 -0.136719 C 0.0507812 -0.136719 0.0703125 -0.117188 0.078125 -0.105469 C 0.160156 0.00390625 0.3125 0.0898438 0.425781 0.113281 C 0.535156 0.136719 0.65625 0.132812 0.761719 0.0820312 C 0.964844 -0.0117188 1.027344 -0.253906 0.863281 -0.421875 C 0.761719 -0.53125 0.589844 -0.605469 0.476562 -0.6875 C 0.398438 -0.746094 0.398438 -0.835938 0.4375 -0.898438 C 0.492188 -0.976562 0.609375 -0.980469 0.679688 -0.964844 C 0.859375 -0.925781 0.980469 -0.8125 0.949219 -0.628906 Z M 0.949219 -0.628906 "/></g></g></g><g fill="#ffffff" fill-opacity="1"><g transform="translate(25.94367, 13.172305)"><g><path d="M 0.578125 0.0195312 C 0.6875 -0.246094 0.796875 -0.511719 0.90625 -0.78125 L 1.050781 -0.722656 C 1.175781 -0.671875 1.191406 -0.578125 1.191406 -0.542969 L 1.203125 -0.539062 L 1.257812 -0.699219 L 0.4375 -1.035156 L 0.363281 -0.882812 L 0.375 -0.878906 C 0.398438 -0.902344 0.476562 -0.957031 0.597656 -0.90625 L 0.746094 -0.847656 C 0.632812 -0.578125 0.523438 -0.3125 0.414062 -0.046875 C 0.386719 0.0273438 0.355469 0.0859375 0.316406 0.128906 L 0.523438 0.214844 C 0.527344 0.152344 0.546875 0.0898438 0.578125 0.0195312 Z M 0.578125 0.0195312 "/></g></g></g><g fill="#ffffff" fill-opacity="1"><g transform="translate(27.477522, 13.877239)"><g><path d="M 0.164062 -0.105469 C 0.121094 -0.128906 0.0664062 -0.117188 0.0429688 -0.0742188 C 0.0195312 -0.0351562 0.0351562 0.0195312 0.0742188 0.0429688 C 0.117188 0.0664062 0.171875 0.0546875 0.195312 0.0117188 C 0.21875 -0.0273438 0.203125 -0.0820312 0.164062 -0.105469 Z M 0.164062 -0.105469 "/></g></g></g><g fill="#ffffff" fill-opacity="1"><g transform="translate(28.295337, 14.38223)"><g><path d="M 0.582031 -0.460938 C 0.582031 -0.515625 0.613281 -0.589844 0.664062 -0.644531 C 0.792969 -0.773438 1.058594 -0.613281 1 -0.414062 C 0.992188 -0.375 0.972656 -0.339844 0.949219 -0.308594 C 0.757812 -0.0585938 0.25 -0.332031 0 0 C 0.191406 0.148438 0.382812 0.296875 0.574219 0.441406 L 0.753906 0.222656 L 0.746094 0.214844 C 0.71875 0.230469 0.628906 0.265625 0.523438 0.183594 L 0.183594 -0.078125 C 0.464844 -0.175781 0.863281 0.0859375 1.078125 -0.191406 C 1.195312 -0.34375 1.160156 -0.527344 0.988281 -0.660156 C 0.84375 -0.769531 0.621094 -0.804688 0.511719 -0.660156 C 0.484375 -0.625 0.46875 -0.589844 0.464844 -0.550781 Z M 0.582031 -0.460938 "/></g></g></g><g fill="#ffffff" fill-opacity="1"><g transform="translate(29.456424, 15.343175)"><g><path d="M 1.070312 -0.503906 C 0.929688 -0.652344 0.636719 -0.597656 0.410156 -0.386719 C 0.183594 -0.171875 0.113281 0.117188 0.253906 0.269531 C 0.390625 0.414062 0.6875 0.363281 0.914062 0.148438 C 1.140625 -0.0625 1.210938 -0.355469 1.070312 -0.503906 Z M 0.296875 0.226562 C 0.203125 0.128906 0.300781 -0.0429688 0.527344 -0.257812 C 0.757812 -0.476562 0.9375 -0.5625 1.027344 -0.460938 C 1.121094 -0.367188 1.023438 -0.191406 0.792969 0.0234375 C 0.566406 0.238281 0.386719 0.324219 0.296875 0.226562 Z M 0.296875 0.226562 "/></g></g></g><g fill="#ffffff" fill-opacity="1"><g transform="translate(30.451862, 16.474826)"><g><path d="M 0.699219 -0.257812 C 0.714844 -0.308594 0.765625 -0.371094 0.832031 -0.40625 C 0.996094 -0.488281 1.195312 -0.253906 1.078125 -0.0820312 C 1.058594 -0.0507812 1.03125 -0.0195312 0.996094 0.00390625 C 0.738281 0.179688 0.339844 -0.238281 0 0 C 0.136719 0.199219 0.273438 0.398438 0.40625 0.597656 L 0.648438 0.449219 L 0.640625 0.4375 C 0.609375 0.441406 0.515625 0.449219 0.4375 0.335938 L 0.199219 -0.0195312 C 0.496094 -0.0195312 0.792969 0.347656 1.085938 0.152344 C 1.242188 0.0429688 1.265625 -0.140625 1.140625 -0.320312 C 1.042969 -0.46875 0.84375 -0.574219 0.691406 -0.46875 C 0.65625 -0.445312 0.628906 -0.414062 0.613281 -0.382812 Z M 0.699219 -0.257812 "/></g></g></g><g fill="#ffffff" fill-opacity="1"><g transform="translate(31.256793, 17.748987)"><g><path d="M 1.023438 -0.46875 L 0.863281 -0.40625 L 0.867188 -0.394531 C 0.902344 -0.394531 0.996094 -0.382812 1.054688 -0.261719 L 1.15625 -0.046875 L 0.75 -0.125 C 0.78125 -0.0507812 0.800781 0.0195312 0.792969 0.0820312 C 0.785156 0.261719 0.589844 0.386719 0.417969 0.390625 C 0.257812 0.394531 0.132812 0.265625 0.164062 0.144531 C 0.199219 0.0117188 0.40625 -0.0507812 0.527344 -0.0117188 L 0.460938 -0.144531 C 0.320312 -0.183594 0.164062 -0.0976562 0.117188 0.0390625 C 0.0859375 0.121094 0.0976562 0.207031 0.132812 0.285156 C 0.238281 0.507812 0.480469 0.601562 0.699219 0.484375 C 0.855469 0.402344 0.921875 0.246094 0.878906 0.078125 L 1.316406 0.160156 Z M 1.023438 -0.46875 "/></g></g></g></svg>