<svg xmlns="http://www.w3.org/2000/svg" xmlns:xlink="http://www.w3.org/1999/xlink" width="60" zoomAndPan="magnify" viewBox="0 0 45 44.999999" height="60" preserveAspectRatio="xMidYMid meet" version="1.0"><defs><clipPath id="67b532d2f8"><path d="M 9.1875 9.1875 L 22 9.1875 L 22 22 L 9.1875 22 Z M 9.1875 9.1875 " clip-rule="nonzero"/></clipPath><clipPath id="3ba9478fa3"><path d="M 24 9.1875 L 36.1875 9.1875 L 36.1875 22 L 24 22 Z M 24 9.1875 " clip-rule="nonzero"/></clipPath><clipPath id="471fc6910b"><path d="M 9.1875 24 L 22 24 L 22 36.1875 L 9.1875 36.1875 Z M 9.1875 24 " clip-rule="nonzero"/></clipPath><clipPath id="da8af330f7"><path d="M 24 24 L 36.1875 24 L 36.1875 36.1875 L 24 36.1875 Z M 24 24 " clip-rule="nonzero"/></clipPath></defs><g clip-path="url(#67b532d2f8)"><path fill="#ffffff" d="M 18.917969 9.1875 L 11.5625 9.1875 C 10.257812 9.1875 9.1875 10.257812 9.1875 11.5625 L 9.1875 18.917969 C 9.1875 20.21875 10.257812 21.289062 11.5625 21.289062 L 18.917969 21.289062 C 20.21875 21.289062 21.289062 20.21875 21.289062 18.917969 L 21.289062 11.5625 C 21.289062 10.257812 20.21875 9.1875 18.917969 9.1875 Z M 18.917969 9.1875 " fill-opacity="1" fill-rule="nonzero"/></g><g clip-path="url(#3ba9478fa3)"><path fill="#ffffff" d="M 33.8125 9.1875 L 26.457031 9.1875 C 25.15625 9.1875 24.085938 10.257812 24.085938 11.5625 L 24.085938 18.917969 C 24.085938 20.21875 25.15625 21.289062 26.457031 21.289062 L 33.8125 21.289062 C 35.117188 21.289062 36.1875 20.21875 36.1875 18.917969 L 36.1875 11.5625 C 36.1875 10.257812 35.117188 9.1875 33.8125 9.1875 Z M 33.8125 9.1875 " fill-opacity="1" fill-rule="nonzero"/></g><g clip-path="url(#471fc6910b)"><path fill="#ffffff" d="M 18.917969 24.085938 L 11.5625 24.085938 C 10.257812 24.085938 9.1875 25.15625 9.1875 26.457031 L 9.1875 33.8125 C 9.1875 35.117188 10.257812 36.1875 11.5625 36.1875 L 18.917969 36.1875 C 20.21875 36.1875 21.289062 35.117188 21.289062 33.8125 L 21.289062 26.457031 C 21.289062 25.15625 20.21875 24.085938 18.917969 24.085938 Z M 18.917969 24.085938 " fill-opacity="1" fill-rule="nonzero"/></g><g clip-path="url(#da8af330f7)"><path fill="#ffffff" d="M 33.8125 24.085938 L 26.457031 24.085938 C 25.15625 24.085938 24.085938 25.15625 24.085938 26.457031 L 24.085938 33.8125 C 24.085938 35.117188 25.15625 36.1875 26.457031 36.1875 L 33.8125 36.1875 C 35.117188 36.1875 36.1875 35.117188 36.1875 33.8125 L 36.1875 26.457031 C 36.1875 25.15625 35.117188 24.085938 33.8125 24.085938 Z M 33.8125 24.085938 " fill-opacity="1" fill-rule="nonzero"/></g></svg>