<svg xmlns="http://www.w3.org/2000/svg" xmlns:xlink="http://www.w3.org/1999/xlink" width="40" zoomAndPan="magnify" viewBox="0 0 30 30.000001" height="40" preserveAspectRatio="xMidYMid meet" version="1.0"><defs><clipPath id="cf367ef1b1"><path d="M 4.863281 6.257812 L 28 6.257812 L 28 10 L 4.863281 10 Z M 4.863281 6.257812 " clip-rule="nonzero"/></clipPath><clipPath id="fe2ca5a5f4"><path d="M 4.863281 12 L 28 12 L 28 17 L 4.863281 17 Z M 4.863281 12 " clip-rule="nonzero"/></clipPath><clipPath id="35930701e4"><path d="M 4.863281 19 L 28 19 L 28 22.953125 L 4.863281 22.953125 Z M 4.863281 19 " clip-rule="nonzero"/></clipPath></defs><g clip-path="url(#cf367ef1b1)"><path fill="#ffffff" d="M 25.800781 9.789062 L 6.597656 9.789062 C 5.652344 9.789062 4.886719 9.011719 4.886719 8.050781 C 4.871094 6.917969 5.929688 6.261719 6.605469 6.3125 C 7.019531 6.3125 25.789062 6.3125 25.828125 6.3125 C 28.074219 6.4375 28.058594 9.699219 25.800781 9.789062 Z M 25.800781 9.789062 " fill-opacity="1" fill-rule="nonzero"/></g><g clip-path="url(#fe2ca5a5f4)"><path fill="#ffffff" d="M 25.800781 16.375 L 6.597656 16.375 C 5.652344 16.375 4.886719 15.59375 4.886719 14.636719 C 4.871094 13.5 5.929688 12.84375 6.605469 12.894531 C 7.019531 12.898438 25.789062 12.894531 25.828125 12.894531 C 28.074219 13.019531 28.058594 16.28125 25.800781 16.375 Z M 25.800781 16.375 " fill-opacity="1" fill-rule="nonzero"/></g><g clip-path="url(#35930701e4)"><path fill="#ffffff" d="M 25.800781 22.957031 L 6.597656 22.957031 C 5.652344 22.957031 4.886719 22.179688 4.886719 21.21875 C 4.871094 20.085938 5.929688 19.429688 6.605469 19.480469 C 7.019531 19.480469 25.789062 19.476562 25.828125 19.480469 C 28.074219 19.601562 28.058594 22.863281 25.800781 22.957031 Z M 25.800781 22.957031 " fill-opacity="1" fill-rule="nonzero"/></g></svg>