<svg xmlns="http://www.w3.org/2000/svg" xmlns:xlink="http://www.w3.org/1999/xlink" width="40" zoomAndPan="magnify" viewBox="0 0 30 30.000001" height="40" preserveAspectRatio="xMidYMid meet" version="1.0"><defs><clipPath id="b267f81514"><path d="M 7.550781 5.042969 L 22.792969 5.042969 L 22.792969 23.914062 L 7.550781 23.914062 Z M 7.550781 5.042969 " clip-rule="nonzero"/></clipPath></defs><g clip-path="url(#b267f81514)"><path fill="#ffffff" d="M 20.710938 11.785156 L 20.710938 10.433594 C 20.710938 10.082031 20.675781 9.730469 20.605469 9.382812 C 20.535156 9.035156 20.429688 8.699219 20.289062 8.371094 C 20.152344 8.046875 19.980469 7.734375 19.777344 7.441406 C 19.578125 7.144531 19.347656 6.875 19.089844 6.621094 C 18.832031 6.371094 18.554688 6.148438 18.25 5.953125 C 17.949219 5.753906 17.628906 5.589844 17.292969 5.453125 C 16.957031 5.320312 16.609375 5.214844 16.253906 5.148438 C 15.898438 5.078125 15.535156 5.042969 15.171875 5.042969 C 14.808594 5.042969 14.449219 5.078125 14.09375 5.148438 C 13.734375 5.214844 13.390625 5.320312 13.054688 5.453125 C 12.71875 5.589844 12.398438 5.753906 12.097656 5.953125 C 11.792969 6.148438 11.515625 6.371094 11.257812 6.621094 C 11 6.875 10.769531 7.144531 10.566406 7.441406 C 10.367188 7.734375 10.195312 8.046875 10.054688 8.371094 C 9.917969 8.699219 9.8125 9.035156 9.742188 9.382812 C 9.667969 9.730469 9.632812 10.082031 9.632812 10.433594 L 9.632812 11.785156 C 9.359375 11.785156 9.09375 11.835938 8.839844 11.9375 C 8.585938 12.039062 8.359375 12.1875 8.164062 12.375 C 7.972656 12.566406 7.820312 12.785156 7.714844 13.03125 C 7.609375 13.277344 7.558594 13.539062 7.558594 13.804688 L 7.558594 21.894531 C 7.558594 22.160156 7.609375 22.417969 7.714844 22.667969 C 7.820312 22.914062 7.972656 23.132812 8.164062 23.324219 C 8.359375 23.511719 8.585938 23.65625 8.839844 23.761719 C 9.09375 23.863281 9.359375 23.914062 9.632812 23.914062 L 20.710938 23.914062 C 20.988281 23.914062 21.253906 23.863281 21.507812 23.761719 C 21.761719 23.65625 21.984375 23.511719 22.179688 23.324219 C 22.375 23.132812 22.527344 22.914062 22.632812 22.667969 C 22.738281 22.417969 22.789062 22.160156 22.789062 21.894531 L 22.789062 13.804688 C 22.789062 13.539062 22.738281 13.277344 22.632812 13.03125 C 22.527344 12.785156 22.375 12.566406 22.179688 12.375 C 21.984375 12.1875 21.761719 12.039062 21.507812 11.9375 C 21.253906 11.835938 20.988281 11.785156 20.710938 11.785156 Z M 11.019531 10.433594 C 11.019531 10.167969 11.046875 9.90625 11.097656 9.648438 C 11.152344 9.386719 11.230469 9.132812 11.335938 8.886719 C 11.441406 8.644531 11.566406 8.410156 11.71875 8.1875 C 11.871094 7.96875 12.042969 7.765625 12.234375 7.574219 C 12.429688 7.386719 12.636719 7.21875 12.867188 7.074219 C 13.09375 6.925781 13.332031 6.800781 13.582031 6.699219 C 13.835938 6.597656 14.09375 6.519531 14.363281 6.46875 C 14.628906 6.417969 14.902344 6.390625 15.171875 6.390625 C 15.445312 6.390625 15.714844 6.417969 15.984375 6.46875 C 16.25 6.519531 16.511719 6.597656 16.761719 6.699219 C 17.015625 6.800781 17.253906 6.925781 17.480469 7.074219 C 17.707031 7.21875 17.917969 7.386719 18.109375 7.574219 C 18.304688 7.765625 18.476562 7.96875 18.628906 8.1875 C 18.777344 8.410156 18.90625 8.644531 19.011719 8.886719 C 19.117188 9.132812 19.195312 9.386719 19.246094 9.648438 C 19.300781 9.90625 19.328125 10.167969 19.328125 10.433594 L 19.328125 11.785156 L 11.019531 11.785156 Z M 12.402344 18.523438 C 12.210938 18.523438 12.050781 18.457031 11.914062 18.324219 C 11.777344 18.195312 11.710938 18.035156 11.710938 17.847656 C 11.710938 17.664062 11.777344 17.503906 11.914062 17.371094 C 12.050781 17.242188 12.210938 17.175781 12.402344 17.175781 C 12.59375 17.175781 12.757812 17.242188 12.894531 17.371094 C 13.027344 17.503906 13.097656 17.664062 13.097656 17.847656 C 13.097656 18.035156 13.027344 18.195312 12.894531 18.324219 C 12.757812 18.457031 12.59375 18.523438 12.402344 18.523438 Z M 15.171875 18.523438 C 14.980469 18.523438 14.820312 18.457031 14.683594 18.324219 C 14.546875 18.195312 14.480469 18.035156 14.480469 17.847656 C 14.480469 17.664062 14.546875 17.503906 14.683594 17.371094 C 14.820312 17.242188 14.980469 17.175781 15.171875 17.175781 C 15.363281 17.175781 15.527344 17.242188 15.664062 17.371094 C 15.796875 17.503906 15.867188 17.664062 15.867188 17.847656 C 15.867188 18.035156 15.796875 18.195312 15.664062 18.324219 C 15.527344 18.457031 15.363281 18.523438 15.171875 18.523438 Z M 17.941406 18.523438 C 17.75 18.523438 17.589844 18.457031 17.453125 18.324219 C 17.316406 18.195312 17.25 18.035156 17.25 17.847656 C 17.25 17.664062 17.316406 17.503906 17.453125 17.371094 C 17.589844 17.242188 17.75 17.175781 17.941406 17.175781 C 18.132812 17.175781 18.296875 17.242188 18.433594 17.371094 C 18.566406 17.503906 18.636719 17.664062 18.636719 17.847656 C 18.636719 18.035156 18.566406 18.195312 18.433594 18.324219 C 18.296875 18.457031 18.132812 18.523438 17.941406 18.523438 Z M 17.941406 18.523438 " fill-opacity="1" fill-rule="nonzero"/></g></svg>