<svg xmlns="http://www.w3.org/2000/svg" xmlns:xlink="http://www.w3.org/1999/xlink" width="60" zoomAndPan="magnify" viewBox="0 0 45 44.999999" height="60" preserveAspectRatio="xMidYMid meet" version="1.0"><defs><clipPath id="c55d9ce716"><path d="M 9.488281 9.488281 L 35.738281 9.488281 L 35.738281 35.738281 L 9.488281 35.738281 Z M 9.488281 9.488281 " clip-rule="nonzero"/></clipPath></defs><g clip-path="url(#c55d9ce716)"><path fill="#ffffff" d="M 22.617188 11.589844 C 16.535156 11.589844 11.589844 16.535156 11.589844 22.617188 C 11.589844 28.695312 16.535156 33.644531 22.617188 33.644531 C 28.695312 33.644531 33.644531 28.695312 33.644531 22.617188 C 33.644531 16.535156 28.695312 11.589844 22.617188 11.589844 Z M 22.617188 35.742188 C 15.378906 35.742188 9.488281 29.851562 9.488281 22.617188 C 9.488281 15.378906 15.378906 9.488281 22.617188 9.488281 C 29.851562 9.488281 35.742188 15.378906 35.742188 22.617188 C 35.742188 29.851562 29.851562 35.742188 22.617188 35.742188 " fill-opacity="1" fill-rule="nonzero"/></g><path fill="#ffffff" d="M 22.617188 16 C 20.972656 16 19.632812 17.335938 19.632812 18.980469 C 19.632812 20.625 20.972656 21.960938 22.617188 21.960938 C 24.257812 21.960938 25.597656 20.625 25.597656 18.980469 C 25.597656 17.335938 24.257812 16 22.617188 16 Z M 22.617188 24.058594 C 19.816406 24.058594 17.535156 21.78125 17.535156 18.980469 C 17.535156 16.179688 19.816406 13.902344 22.617188 13.902344 C 25.417969 13.902344 27.695312 16.179688 27.695312 18.980469 C 27.695312 21.78125 25.417969 24.058594 22.617188 24.058594 " fill-opacity="1" fill-rule="nonzero"/><path fill="#ffffff" d="M 29.167969 33.730469 C 28.589844 33.730469 28.121094 33.261719 28.121094 32.679688 L 28.121094 30.726562 C 28.121094 28.992188 26.710938 27.582031 24.976562 27.582031 L 20.253906 27.582031 C 18.523438 27.582031 17.113281 28.992188 17.113281 30.726562 L 17.113281 32.679688 C 17.113281 33.261719 16.640625 33.730469 16.0625 33.730469 C 15.484375 33.730469 15.011719 33.261719 15.011719 32.679688 L 15.011719 30.726562 C 15.011719 27.835938 17.363281 25.484375 20.253906 25.484375 L 24.976562 25.484375 C 27.867188 25.484375 30.21875 27.835938 30.21875 30.726562 L 30.21875 32.679688 C 30.21875 33.261719 29.75 33.730469 29.167969 33.730469 " fill-opacity="1" fill-rule="nonzero"/></svg>